<?xml version="1.0" encoding="UTF-8"?>
<svg id="Ebene_2" xmlns="http://www.w3.org/2000/svg" version="1.1" viewBox="0 0 214.87 275">
  <!-- Generator: Adobe Illustrator 29.1.0, SVG Export Plug-In . SVG Version: 2.1.0 Build 142)  -->
  <defs>
    <style>
      .st0 {
        fill: #95160c;
      }
    </style>
  </defs>
  <g id="Ebene_1-2">
    <path class="st0" d="M45.5,100.6c2.9.3,11.1.7,15.8-4.5,6.4-6.9,3.7-21.2,3.3-23.2-.2-.8-.3-1.7-.4-2.6-.6-11.7,11.4,10.5,13,13.3,1.2,2.2,2.4,4,3.9,5.7,0,0,1,1.1,2.1,2.1,6.3,5.8,36.2,20.3,38.1,33.6,0,.5.4,2.8-.6,3.4-1.3.7-3.3-2.2-6.8-3.8-5-2.2-11.3-1-11.7.8-.6,2.4,9.8,5.2,9.6,10,0,1.4-1.1,2.9-2.3,3.1-1.9.4-3.3-2.5-7-6.5-.7-.7-3.4-3-8.8-7.6-7-6-9.3-7.7-8.9-8.5.6-1.1,5.7,1.7,13.4.5,1.8-.3,4.8-.7,5-2,.2-.9-1.3-2.3-9.9-6.1-7.8-3.5-11.7-5.3-13.7-5.4-13.8-.8-33.1,19.8-29.8,36.7,2.1,10.7,12.6,16.5,23.9,22.8,22.9,12.7,44.7,10.5,55.6,22.4.7.7,2.3,2.6,4,2.3,4.2-.7,4.7-13.2,6.9-28.9,2.4-17.5,6.2-29,8.6-43.8,4.1-25.6,4.9-30.4,1.4-35.4-4-5.8-12.4-10.9-21.3-10.7-1.4,0-5.2.2-9.2,2.2-14.2,7.1-14.3,29.5-18.4,29.4-2.7,0-5.6-9.8-6.3-21.8-1.9-32.4,13.8-58.2,15.9-57.5,1.3.4-4.2,14,2.4,27.9,1.5,3.1,2.9,6.1,5.4,6.4,7.6,1.1,17.2-23.5,19.5-29.2,6.4-15.9,6.6-25.3,9.3-25.4,3.4-.2,8.8,20.8,11.4,41,3.1,23.5,2.5,33.4,7.6,35.2,5.2,1.8,9.8-7.2,29.1-18.7,7.9-4.7,18.4-9.6,19.2-8.3,1,1.5-11.6,11.1-17.5,16.2-32.4,27.8-54.5,85.4-42.9,133.6,5.7,23.8,19.1,42.7,16.6,44.1-2.5,1.4-18-18.4-21.1-22.6-.1-.1-.2-.2-.2-.3-4.6-6.4-6.2-9.3-8.5-9.1-3.3.3-5.6,6.7-10.8,30.2-5.5,24.8-6.5,33.9-8.5,33.9-2.4,0-6.2-12-5.7-24.8.6-13.8,6.2-22.5,6-41.8,0-3.1-.2-7.3-1.7-7.7-3.2-.9-6.5,14.9-21.1,28.8-7.3,6.9-14.1,10.7-17.9,12.8-6.2,3.4-16.8,8.2-17.9,6.6-1.2-1.8,9.8-8.4,21.6-24.2,8.7-11.5,11-19,11.9-24.8.7-4.4,2.1-13.4-3.1-18.2-4-3.7-9.9-3.2-10.2-3.1-17.5,1.8-25.7,39.3-29.6,38.1-1.6-.5-1.5-7.6.2-13.1,1.2-4,2.4-4.2,5-10.3,1.2-2.7,2.8-6.7,3.7-11.9.7-4.2,1.2-7.6.3-11.1-2-7.4-10.7-14.7-18.5-13.9-4.8.4-6.3,3.6-23.3,18.5-5.8,5-7.2,6.1-7.7,5.7-2.1-1.7,17.4-32.5,23.3-45.2,0-.2.2-.5.4-1,2.6-6.9-3.3-15.1-6.3-19C17.4,97.4-1.3,83.7,0,81.5c.6-1.1,5.8.8,11.4,3,9,3.6,20.7,8.8,34.1,16.1h0Z"/>
  </g>
</svg>