<?xml version="1.0" encoding="UTF-8"?>
<svg id="Ebene_2" data-name="Ebene 2" xmlns="http://www.w3.org/2000/svg" viewBox="0 0 214.87 275">
  <defs>
    <style>
      .cls-1 {
        fill: #fff;
      }
    </style>
  </defs>
  <g id="Ebene_1-2" data-name="Ebene 1-2">
    <path class="cls-1" d="M45.54,100.59c2.94.29,11.11.68,15.83-4.46,6.38-6.94,3.73-21.15,3.29-23.2-.18-.84-.32-1.7-.36-2.56-.59-11.74,11.38,10.53,13,13.28,1.22,2.19,2.39,3.99,3.86,5.67,0,0,.98,1.1,2.1,2.12,6.33,5.75,36.21,20.3,38.11,33.57.07.5.36,2.81-.63,3.36-1.27.7-3.27-2.24-6.8-3.82-4.97-2.22-11.26-.99-11.7.78-.6,2.42,9.84,5.24,9.55,10-.09,1.43-1.14,2.92-2.32,3.15-1.87.37-3.32-2.53-6.97-6.47-.66-.72-3.37-3.02-8.79-7.63-7.04-5.98-9.3-7.71-8.91-8.46.57-1.09,5.71,1.69,13.39.5,1.77-.28,4.77-.74,4.98-1.99.16-.94-1.27-2.29-9.87-6.11-7.83-3.48-11.74-5.33-13.7-5.45-13.84-.85-33.12,19.76-29.83,36.65,2.08,10.66,12.57,16.47,23.92,22.75,22.93,12.69,44.71,10.52,55.59,22.4.67.73,2.27,2.58,4,2.3,4.19-.67,4.7-13.2,6.9-28.91,2.45-17.49,6.23-28.97,8.63-43.81,4.13-25.55,4.86-30.39,1.4-35.43-4.01-5.85-12.38-10.94-21.31-10.72-1.45.04-5.19.19-9.17,2.16-14.24,7.05-14.27,29.5-18.37,29.39-2.69-.07-5.61-9.78-6.31-21.79-1.87-32.38,13.79-58.16,15.93-57.52,1.32.39-4.15,14.02,2.38,27.88,1.48,3.13,2.91,6.07,5.36,6.42,7.58,1.08,17.18-23.49,19.47-29.2C144.56,9.5,144.77.14,147.45,0c3.44-.18,8.76,20.75,11.39,41.04,3.05,23.46,2.48,33.4,7.63,35.18,5.2,1.79,9.75-7.2,29.09-18.69,7.94-4.72,18.39-9.59,19.25-8.3,1.01,1.53-11.64,11.11-17.52,16.16-32.37,27.8-54.5,85.42-42.92,133.55,5.72,23.76,19.05,42.73,16.63,44.09-2.51,1.41-18.02-18.4-21.11-22.65-.1-.13-.17-.24-.23-.31-4.62-6.36-6.17-9.31-8.54-9.11-3.31.29-5.63,6.69-10.82,30.17-5.48,24.8-6.48,33.86-8.54,33.87-2.38.01-6.25-12.03-5.69-24.76.6-13.84,6.16-22.52,5.98-41.84-.03-3.1-.23-7.27-1.71-7.68-3.16-.89-6.51,14.93-21.06,28.75-7.31,6.95-14.05,10.69-17.93,12.81-6.19,3.38-16.82,8.25-17.93,6.55-1.17-1.8,9.8-8.45,21.63-24.19,8.66-11.53,11.04-18.97,11.95-24.76.7-4.44,2.11-13.37-3.13-18.21-4-3.7-9.87-3.17-10.25-3.13-17.49,1.83-25.71,39.34-29.6,38.14-1.64-.51-1.53-7.55.15-13.05,1.23-4.01,2.39-4.23,4.97-10.29,1.16-2.72,2.85-6.74,3.7-11.95.68-4.16,1.24-7.59.28-11.1-2.03-7.43-10.71-14.66-18.5-13.95-4.82.44-6.26,3.65-23.34,18.5-5.75,5-7.23,6.06-7.68,5.69-2.07-1.68,17.4-32.47,23.34-45.18.08-.18.23-.52.4-.97,2.62-6.94-3.3-15.08-6.3-19.02C17.41,97.43-1.27,83.72.07,81.47c.65-1.09,5.84.81,11.38,3.04,9.01,3.62,20.7,8.8,34.09,16.09h0Z"/>
  </g>
</svg>